<svg fill="none" height="36" viewBox="0 0 169 36" width="169" xmlns="http://www.w3.org/2000/svg" xmlns:xlink="http://www.w3.org/1999/xlink"><linearGradient id="a"><stop offset="0" stop-color="#f445a9"/><stop offset=".9713" stop-color="#b80092"/></linearGradient><linearGradient id="b" gradientUnits="userSpaceOnUse" x1="-.003208" x2="22.2009" xlink:href="#a" y1="20.4195" y2="20.4195"/><linearGradient id="c" gradientUnits="userSpaceOnUse" x1="20.739" x2="32.609" xlink:href="#a" y1="11.4434" y2="11.4434"/><g fill="#000"><path d="m39.7932 9.94015c-.0236-.095-.0472-.19-.0708-.26125s-.0236-.1425-.0472-.2375c-.0236-.07125-.0236-.1425-.0236-.21375 0-.21375.0708-.40375.2359-.54625s.401-.21375.7077-.21375h3.1847c.2831 0 .519.07125.6841.21375.1652.1425.3067.35625.4246.6175l.3303.8075c.2359.665.4954 1.4487.8021 2.28.3067.855.6133 1.71.92 2.6125s.6369 1.7812.9436 2.66c.3303.8787.6134 1.71.8964 2.4937.2831.7838.5426 1.4725.7549 2.0663.2123.5937.4011 1.0687.519 1.3775.1887-.57.4246-1.2588.7077-1.995.2595-.76.5426-1.5438.8493-2.3988.3066-.855.6133-1.7337.9436-2.6362.3302-.9025.6369-1.7813.9436-2.66.3067-.855.5897-1.6863.8728-2.4938.2831-.7837.519-1.4962.7549-2.13745.118-.285.2595-.49875.4246-.6175.1652-.11875.4011-.19.7077-.19h3.3027c.3538 0 .6133.07125.7549.19.1415.11875.2123.285.2123.475 0 .095-.0236.21375-.0472.35625s-.0472.2375-.0708.30875l-8.4217 20.59125c-.0943.1662-.2123.3325-.3538.475-.1416.1662-.3775.2375-.7549.2375h-1.6278c-.4246 0-.7077-.0713-.8492-.2138s-.2595-.3087-.3303-.4987z"/><path d="m62.6757 1.69869c0-.712497.3538-1.068746 1.038-1.068746h2.9723c.3303 0 .5898.095.8021.26125.1887.189996.3067.451246.3067.807496v2.66c0 .285-.0944.5225-.2831.78375-.1887.2375-.4482.35625-.8021.35625h-2.9723c-.7078 0-1.0616-.38-1.0616-1.14zm0 7.88499c0-.30875.0944-.57.2595-.78375.1887-.21375.4246-.30875.7785-.30875h2.9488c.1179 0 .2594.02375.401.07125.1415.0475.2595.1425.3538.2375.0944.095.1888.21375.2595.35625.0708.1425.0944.285.0944.4275v20.47252c0 .7125-.3774 1.0687-1.1087 1.0687h-2.9488c-.7077 0-1.0616-.3562-1.0616-1.0687v-20.47252z"/><path d="m95.1833 30.0561c0 .2138-.0472.38-.1416.5225-.0943.1425-.2123.2375-.3538.3088-.1416.0712-.3067.1425-.4954.1662-.1887.0238-.3775.0475-.5662.0475h-2.2175c-.3774 0-.6369-.095-.7784-.3087-.1416-.19-.2595-.4513-.3303-.76l-.118-1.52c-.4246.4275-.8728.8075-1.3682 1.1637-.4954.3563-1.038.665-1.6277.95-.5898.2613-1.2031.475-1.8401.6175-.6605.1425-1.321.2138-2.0051.2138-1.0616 0-2.076-.1425-3.0668-.4275s-1.9108-.665-2.76-1.1875c-.8729-.4988-1.6513-1.1163-2.3355-1.8288-.7077-.7125-1.2974-1.4962-1.8164-2.375-.4954-.855-.8964-1.805-1.1559-2.8024-.2831-.9975-.4247-2.0425-.4247-3.1113 0-1.0687.1416-2.1137.4247-3.1112.283-.9975.6605-1.9238 1.1559-2.8025.4954-.855 1.1087-1.6625 1.8164-2.3513.7077-.7125 1.4862-1.3062 2.3355-1.80498.8492-.49875 1.7928-.9025 2.76-1.1875.9908-.285 2.0052-.4275 3.0668-.4275.7549 0 1.4626.07125 2.1467.2375s1.321.38 1.9108.68875c.5898.285 1.1559.64125 1.6513 1.04503.4954.4037.9672.855 1.3683 1.3537l.2359-1.89998c.0471-.21375.1179-.38.1651-.5225s.1179-.2375.1887-.3325c.0708-.07125.1651-.1425.2831-.16625.1179-.02375.2595-.0475.4482-.0475h1.7693c.1887 0 .3774.02375.5661.0475.1888.02375.3539.095.519.16625.1416.07125.2831.19.3539.3325.0943.1425.1415.30875.1415.49875v20.61493zm-18.4004-10.2599c0 .95.1651 1.8525.4954 2.7075.3302.855.7784 1.5912 1.3682 2.2324.5898.6413 1.2739 1.14 2.0759 1.52.8021.38 1.675.57 2.6186.57.9672 0 1.84-.19 2.6893-.57.8256-.38 1.5569-.8787 2.1703-1.52.6133-.6412 1.1087-1.3774 1.4626-2.2324.3538-.855.5189-1.7575.5189-2.7075 0-.9263-.1887-1.8288-.5189-2.6838-.3539-.855-.8493-1.5912-1.4626-2.2325-.6134-.6412-1.3447-1.14-2.1703-1.5437-.8257-.38-1.7221-.57-2.6893-.57-.9436 0-1.8165.19-2.6186.57-.802.38-1.4861.9025-2.0759 1.5437-.5898.6413-1.0616 1.3775-1.3682 2.2325-.3303.8313-.4954 1.7338-.4954 2.6838z"/><path d="m98.1082 19.8436c0-1.0688.1415-2.1138.4246-3.135.2831-.9975.6605-1.9475 1.1795-2.8025.4957-.855 1.1087-1.6625 1.8167-2.3513.707-.7125 1.486-1.3062 2.359-1.80498.849-.49875 1.793-.9025 2.76-1.16375.991-.285 2.005-.4275 3.09-.4275 1.062 0 2.076.1425 3.067.4275s1.911.665 2.76 1.16375c.849.49878 1.628 1.11628 2.335 1.80498.708.7125 1.321 1.4963 1.817 2.3513.495.8787.896 1.805 1.179 2.8025s.425 2.0425.425 3.135-.142 2.1137-.425 3.1112-.66 1.9238-1.179 2.7788c-.496.855-1.109 1.6387-1.817 2.3512-.707.7125-1.486 1.33-2.335 1.8287-.849.4988-1.769.9025-2.76 1.1875s-2.005.4275-3.067.4275c-1.061 0-2.099-.1425-3.09-.4275s-1.911-.665-2.76-1.1875c-.849-.4987-1.652-1.1162-2.359-1.8287-.708-.7125-1.321-1.4962-1.8167-2.3512-.4954-.855-.8964-1.7813-1.1795-2.7788s-.4246-2.0425-.4246-3.1112zm4.9778 0c0 .95.165 1.8525.495 2.7075s.779 1.5912 1.392 2.2087c.59.6413 1.297 1.14 2.099 1.4963.803.3562 1.699.5462 2.643.5462.92 0 1.792-.19 2.594-.5462.803-.3563 1.487-.855 2.053-1.4963.566-.6412 1.038-1.3775 1.344-2.2087.331-.855.496-1.7575.496-2.7075 0-.9263-.165-1.8288-.496-2.6838-.33-.855-.778-1.615-1.344-2.2562-.59-.6413-1.274-1.1638-2.053-1.5438-.802-.38-1.651-.57-2.594-.57-.944 0-1.84.19-2.643.57-.802.38-1.509.9025-2.099 1.5438-.59.6412-1.062 1.4012-1.392 2.2562s-.495 1.7338-.495 2.6838z"/><path d="m132.574 31.1247c-.944 0-1.817-.1663-2.619-.4275-.825-.285-1.533-.665-2.146-1.1875-.614-.5225-1.086-1.1638-1.439-1.9-.354-.76-.519-1.615-.519-2.565v-2.9688-9.0962h-2.029c-.354 0-.59-.0712-.779-.2375-.188-.1662-.259-.4037-.259-.76v-2.54124c0-.3325.094-.59375.259-.73625.166-.14249.425-.21375.779-.21375h2.029c0-.61749 0-1.25874 0-1.87624s0-1.25875 0-1.87625c0-.2375.07-.4275.212-.57s.377-.26125.684-.35625c.189-.07125.448-.16625.731-.26125s.567-.19.873-.285c.307-.095.59-.16625.873-.2375s.519-.095.708-.095c.354 0 .613.095.707.30875.118.21375.166.475.166.8075v2.2325 2.23249h2.547c.307 0 .543.07125.708.2375s.26.40375.26.76v2.42249c0 .38-.095.6413-.26.8075-.165.1663-.401.2375-.708.2375h-2.547v1.9713 1.425 1.14 1.1637 1.425 1.9712.0713.0712 2.3275c0 .7838.141 1.3538.448 1.6863.306.3562.802.5225 1.486.5225.236 0 .448.095.59.2612.141.1663.212.4038.212.6413v2.47c0 .3087-.094.5462-.259.7125-.166.19-.401.285-.708.285z"/><path d="m159.49 30.0561c0 .2138-.047.38-.142.5225-.094.1425-.212.2375-.353.3088-.142.0712-.307.1425-.496.1662-.189.0238-.377.0475-.566.0475h-2.217c-.378 0-.637-.095-.779-.3087-.142-.19-.259-.4513-.33-.76l-.095-1.52c-.424.4275-.872.8075-1.368 1.1637-.495.3563-1.038.665-1.628.95-.589.2613-1.203.475-1.84.6175-.66.1425-1.321.2138-2.005.2138-1.061 0-2.076-.1425-3.067-.4275-.99-.285-1.91-.665-2.76-1.1875-.872-.4988-1.651-1.1163-2.335-1.8288-.708-.7125-1.297-1.4962-1.816-2.375-.496-.855-.897-1.8049-1.18-2.8024s-.425-2.0425-.425-3.1113c0-1.0687.142-2.1137.425-3.1112s.661-1.9238 1.18-2.8025c.495-.855 1.108-1.6625 1.816-2.3513.708-.7125 1.486-1.3062 2.335-1.80498.85-.49875 1.793-.9025 2.76-1.1875.991-.285 2.006-.4275 3.067-.4275.755 0 1.463.07125 2.147.2375s1.321.38 1.911.68875c.59.285 1.156.64125 1.651 1.04503.495.4037.967.855 1.368 1.3537l.26-1.89998c.047-.21375.118-.38.165-.5225s.118-.2375.189-.3325c.07-.07125.165-.1425.283-.16625s.259-.0475.448-.0475h1.769c.189 0 .378.02375.566.0475.189.02375.354.095.519.16625.142.07125.283.19.354.3325.095.1425.142.30875.142.49875v20.61493zm-18.4-10.2599c0 .95.165 1.8525.495 2.7075s.778 1.5912 1.368 2.2324c.59.6413 1.274 1.14 2.076 1.52s1.675.57 2.619.57c.943 0 1.84-.19 2.689-.57.826-.38 1.557-.8787 2.17-1.52.614-.6412 1.109-1.3774 1.463-2.2324s.519-1.7575.519-2.7075c0-.9263-.189-1.8288-.519-2.6838-.354-.855-.849-1.5912-1.463-2.2325-.613-.6412-1.344-1.14-2.17-1.5437-.826-.38-1.722-.57-2.689-.57-.944 0-1.817.19-2.619.57s-1.486.9025-2.076 1.5437c-.59.6413-1.061 1.3775-1.368 2.2325-.33.8313-.495 1.7338-.495 2.6838z"/><path d="m163.382 27.6816c0-.3325.047-.6175.142-.855.094-.2375.306-.3563.637-.3563h2.783c.142 0 .283 0 .425.0238.141.0237.283.0475.401.095s.236.1425.307.2375c.07.095.118.2375.118.4275v2.6362c0 .1663 0 .3088-.024.475-.024.1425-.047.285-.094.38-.048.1188-.142.2138-.236.285-.118.0713-.26.095-.449.095h-2.783c-.425 0-.731-.0475-.944-.1425-.212-.095-.33-.3087-.33-.665v-2.6362z"/></g><path d="m17.3114 35.2811c-2.4298.4275-4.8832-.7125-6.1335-2.8738l-10.3797-18.0025c-2.05235-3.5862.047181-8.12246 4.08112-8.83496 2.42979-.4275 4.88318.7125 6.13348 2.87374l10.3797 18.00252c2.0759 3.5625-.0236 8.1225-4.0811 8.835z" fill="url(#b)"/><path d="m26.6764 17.4208c3.2832 0 5.9448-2.6796 5.9448-5.985 0-3.30542-2.6616-5.98499-5.9448-5.98499s-5.9447 2.67957-5.9447 5.98499c0 3.3054 2.6615 5.985 5.9447 5.985z" fill="url(#c)"/></svg>