<svg height="180" width="275" xmlns="http://www.w3.org/2000/svg"><path d="m0-.14905h273.1608v179.16998h-273.1608z" fill="#fff" stroke="#fff" stroke-width="4"/><g fill="#435024" stroke="#435024"><path d="m80.306904 109.07402s-.46154 3.92308 1.15385 5.76923c1.61538 1.84616 5.53846 3.92308 6.92308 4.15385 1.38461.23077-1.61539-5.07693-1.61539-5.07693s-4.38461-5.53846-6.46154-4.84615z"/><path d="m80.999214 118.9971s.46154 3.69231 3 4.15384c2.53846.46154 4.84615.23077 4.84615.23077s0-4.15384-7.84615-4.38461z"/><path d="m89.306904 111.38171s2.53846.92308 2.53846 3.23077-.23076 4.61539-.23076 4.61539-1.84616-2.3077-1.84616-3.46154c0-1.15385-.46154-4.38462-.46154-4.38462z"/><path d="m88.367574 125.27178s-.32636 2.2845 2.2845 2.2845c2.61085 0 .32635-2.93721-2.2845-2.2845z"/><path d="m88.204394 128.86171s2.77403-.81589 6.0376-.16318 4.89535 3.10039 4.89535 3.10039-3.42674.97907-7.34302 0c-3.91629-.97907-3.58993-2.93721-3.58993-2.93721z"/><path d="m89.999354 120.70278s3.91629-1.14225 7.66939 7.34304c0 0-7.17985-1.79498-7.66939-7.34304z"/><path d="m94.078814 118.90782s4.40582-2.44768 7.995746 8.97482c0 0-5.058536-1.95815-7.995746-8.97482z"/><path d="m99.953244 129.51442s4.405806-1.63178 10.117056 5.05854c-9.30118-.32635-10.117056-5.05854-10.117056-5.05854z"/><path d="m102.90032 126.4048s-.21584 2.57272 1.51088 2.57272c1.72674 0 .21585-3.30777-1.51088-2.57272z" stroke-width=".863021"/><path d="m99.722704 133.0879s-.16835 2.24732 1.178476 2.24732c1.34685 0 .16836-2.8894-1.178476-2.24732z" stroke-width=".712366"/><path d="m113.18056 140.0302s-.21584 2.57273 1.51088 2.57273c1.72674 0 .21585-3.30778-1.51088-2.57273z" stroke-width=".863021"/><path d="m117.26003 132.36081s-.21584 2.57272 1.51088 2.57272c1.72674 0 .21585-3.30777-1.51088-2.57272z" stroke-width=".863021"/><path d="m106.48037 127.88264s6.20079-1.63179 8.81164 6.20078c-7.50621-1.14225-8.81164-6.20078-8.81164-6.20078z"/><path d="m100.93231 136.5311s7.01667-1.79497 10.28024.65271-6.20078 3.42675-10.28024-.65271z"/><path d="m113.17069 136.69428s4.73218-2.2845 9.95389 2.77403c-9.79071 1.30543-9.95389-2.77403-9.95389-2.77403z"/><path d="m121.16644 133.59388s4.73217-1.4686 9.30117 7.17986c-10.28025-1.4686-9.30117-7.17986-9.30117-7.17986z"/><path d="m129.32536 143.05825s-5.22171 3.58992-11.74885-.16318c0 0 2.12132-4.40582 11.74885.16318z"/><path d="m191.8952 108.99158s.46153 3.92308-1.15385 5.76923c-1.61539 1.84616-5.53846 3.92308-6.92308 4.15385-1.38461.23077 1.61539-5.07693 1.61539-5.07693s4.38461-5.53846 6.46154-4.84615z"/><path d="m191.20289 118.91466s-.46154 3.69231-3 4.15384c-2.53846.46154-4.84616.23077-4.84616.23077s0-4.15384 7.84616-4.38461z"/><path d="m182.8952 111.29927s-2.53847.92308-2.53847 3.23077.23077 4.61539.23077 4.61539 1.84616-2.3077 1.84616-3.46154c0-1.15385.46154-4.38462.46154-4.38462z"/><path d="m183.83453 125.18934s.32636 2.2845-2.2845 2.2845c-2.61085 0-.32636-2.93721 2.2845-2.2845z"/><path d="m183.99771 128.77927s-2.77404-.81589-6.0376-.16318c-3.26358.65271-4.89536 3.10039-4.89536 3.10039s3.42675.97907 7.34303 0c3.91629-.97907 3.58993-2.93721 3.58993-2.93721z"/><path d="m182.20275 120.62034s-3.91629-1.14225-7.6694 7.34304c0 0 7.17986-1.79498 7.6694-7.34304z"/><path d="m178.12328 118.82538s-4.40582-2.44768-7.99575 8.97482c0 0 5.05854-1.95815 7.99575-8.97482z"/><path d="m172.24885 129.43198s-4.40581-1.63178-10.11706 5.05854c9.30118-.32635 10.11706-5.05854 10.11706-5.05854z"/><path d="m169.30177 126.32236s.21584 2.57272-1.51088 2.57272c-1.72674 0-.21585-3.30777 1.51088-2.57272z" stroke-width=".863021"/><path d="m172.47939 133.00546s.16835 2.24732-1.17848 2.24732c-1.34685 0-.16836-2.8894 1.17848-2.24732z" stroke-width=".712366"/><path d="m159.02153 139.94776s.21584 2.57273-1.51088 2.57273c-1.72674 0-.21585-3.30778 1.51088-2.57273z" stroke-width=".863021"/><path d="m154.94206 132.27837s.21584 2.57272-1.51088 2.57272c-1.72674 0-.21585-3.30777 1.51088-2.57272z" stroke-width=".863021"/><path d="m165.72172 127.8002s-6.20079-1.63179-8.81164 6.20078c7.50621-1.14225 8.81164-6.20078 8.81164-6.20078z"/><path d="m171.26978 136.44866s-7.01667-1.79497-10.28024.65271 6.20078 3.42675 10.28024-.65271z"/><path d="m159.0314 136.61184s-4.73218-2.2845-9.95389 2.77403c9.79071 1.30543 9.95389-2.77403 9.95389-2.77403z"/><path d="m151.03565 133.51144s-4.73217-1.4686-9.30117 7.17986c10.28025-1.4686 9.30117-7.17986 9.30117-7.17986z"/><path d="m142.87673 142.97581s5.22171 3.58992 11.74885-.16318c0 0-2.12132-4.40582-11.74885.16318z"/><path d="m135.11459 145.07403s-3.57692 4.84615-3.57692 4.38462c0-.46154-2.53846-2.53847-2.53846-2.53847l4.38461-3.23076-1.73077-.8077.92308-1.03847 3.23077 1.38463"/><path d="m136.09537 145.05854s3.57692 4.84615 3.57692 4.38462c0-.46154 2.53846-2.53847 2.53846-2.53847l-4.38461-3.23076 1.73077-.8077-.92308-1.03847-3.23077 1.38463"/><path d="m134.88382 145.3048h1.5"/></g><path d="m70.153064 68.227865s1.84615 4.846154 3.92307 4.846154c2.07693 0 7.61539.461538 7.61539.461538s2.76923-.461538 3.69231-3c.92307-2.538461 3.46153-13.153846 16.153836-6.692307 12.69231 6.461538 13.38461-11.076924 13.38461-11.076924l-2.07692-3 .46154-5.76923s6.92308 4.846154 11.30769 4.615384c4.38462-.230769 7.61539 1.384616 9 1.384616 1.38462 0 5.76923 1.384615 5.76923 1.384615l11.30769.461539s1.84616-1.615385 3.69231-1.384616c1.84616.230769 1.84616-1.153846 5.30769-1.153846 3.46154 0 6.92308-4.384615 6.92308-4.384615s.92308-.923077 6 0c0 0 3.46154-2.769231 8.53846-4.384616 5.07693-1.615384 4.38462-3.692307 4.38462-3.692307s3.69231-.692308 5.30769-.461539 2.53846-2.769231 2.53846-2.769231l3.92308-.461538 1.61538-2.307692 3.92308-.692308s4.61538-3.23077 5.30769-5.307693c.69231-2.076924 6-.461539 6-.461539s2.30769-2.076923 2.53846-3.230769 2.3077-.230769 2.3077-.230769l-.23077 3.692307-2.53846 1.384616v2.307692h-3.92308l-.23077 2.307693-3.23077.23077-.46154 2.76923-.69231 1.153846-.92307.461539h-2.3077l-.92307 1.384615-2.30769 1.615385-1.61539 2.076923-3.23077-.230769-2.07692 2.769231-1.38462-.23077-2.07692 3.461539-1.61538 2.076923-.92308 1.384615-1.61539.461539-.46153 1.846154-2.76924.692307-3.6923.923077-1.38462 1.615385s-3.92308 7.846154.23077 10.615384c4.15385 2.769231 4.38462 5.769231 4.38462 5.769231l2.07692 1.384616 1.61538 2.76923.69231 3.23077s-.69231.461538-1.61538.230769c-.92308-.230769-2.53846-.461539-2.53846-.461539l-1.84616-1.615384-3.46154-.23077-1.84615 2.076924s-.92308 1.384615-.92308 2.307692-.46154.692308-1.61538 0c-1.15385-.692308-3-1.846154-3-1.846154l-2.53846-.692308-.23077-1.153846-1.61539.923077s-.46154 1.384615-1.38461.923077c-.92308-.461538-1.84616-.461538-1.84616-.461538h-1.61538s-3.69231 2.76923-3.23077 11.76923l-4.15385.692308-2.07692 1.846154-1.15385 1.153846h-3l-1.61538 1.384615-3 1.153847-1.38462 1.846158-3.6923.23076-1.61539 1.153852-.69231 1.61539-2.53846-1.61539-3.46154-.923082-3 .69231s-.92307.230772-1.84615.923082-3.46154 1.15384-3.46154 1.15384-1.61538.46154-1.61538 1.38462-.46154 2.53846-.46154 2.53846v3.46154s-.46154 2.30769-2.30769 2.30769c-1.84616 0-1.38462 0-2.3077-.23077-.92307-.23077-.6923-2.30769-.6923-2.30769v-2.53846l-3.69231-3.46154-2.30769-.92308-2.53847.23077-2.30769 1.38462-2.07692 1.38461s.46154 1.61539-1.153846.46154c-1.61538-1.15384-2.76923-1.61538-2.76923-1.61538l-2.07692-1.15385-2.76923-.69231-2.07692-2.538462-5.30769-.23077-4.61539-5.307689-1.38461-1.384616-.23077-4.153846-3-.461538v-2.307693l-1.15385-2.307692.46154-4.153846-2.76923-1.153846-1.15385-3.923077z" fill="#d87503" stroke="#d87503"/></svg>