<svg height="440" viewBox="0 0 2880 1920" width="660" xmlns="http://www.w3.org/2000/svg"><path d="m0 0h2880v1920h-2880z" fill="#00785e"/><g fill-rule="evenodd"><path d="m1440 362-23.6562 72.90625h-76.6876l62.0313 45.0625-23.6875 72.875 62-45 62 45-23.6875-72.875 62.0313-45.0625h-76.6876zm-302.5625 127.90625 15.5313 50.71875-43.4688 30.40625 53.0312.9375 15.5 50.71875 17.2813-50.15625 53.0313.90625-42.3438-31.90625 17.25-50.15625-43.4688 30.4375zm605.125 0-42.3437 31.90625-43.4688-30.4375 17.25 50.15625-42.3438 31.90625 53.0313-.90625 17.2813 50.15625 15.5-50.71875 53.0312-.9375-43.4688-30.40625zm-705.5937 167.5625-22.4063 48.0625-52.625-6.46875 38.7813 36.15625-22.4063 48.09375 46.375-25.71875 38.7813 36.15625-10.0938-52.0625 46.3438-25.71875-52.625-6.4375zm806.0624 0-10.125 52.0625-52.625 6.4375 46.3438 25.71875-10.0938 52.0625 38.7813-36.15625 46.375 25.71875-22.4063-48.09375 38.7813-36.15625-52.625 6.46875z" fill="#fbd116"/><path d="m1440 614.40625c-68.8736 59.51889-112.5 147.49144-112.5 245.59375 0 66.72583 20.174 128.75415 54.75 180.3438-42.4621-54.85207-67.75-123.65813-67.75-198.3438 0-49.6094 11.1628-96.62673 31.0938-138.6875-13.7651-14.54686-24.2214-32.25814-30.125-51.9375-26.7118 47.14513-41.9688 101.60467-41.9688 159.625 0 72.17038 23.6022 138.84574 63.5 192.75-69.4832-72.84023-167.4627-118.25001-276-118.25-5.8322 0-11.6381.14686-17.4062.40625 10.921 10.17899 20.0883 22.20825 27 35.59375 107.9634.16462 205.43 45.28136 274.75 117.5938-66.2028-55.2952-151.4093-88.59381-244.3438-88.5938-51.9365 0-101.45241 10.39612-146.59375 29.21875 46.37985 122.55435 164.85705 209.78125 303.59375 209.78125 8.9834 0 17.8889-.4043 26.6875-1.125-18.721 3.364-38.0033 5.125-57.6875 5.125-87.5323 0-166.9867-34.7204-225.375-91.125-12.15417 4.6765-25.18888 7.5966-38.78125 8.4062 59.47015 67.2664 146.37925 109.7188 243.15625 109.7188 91.9236 0 174.9443-38.2921 234-99.7812 59.0557 61.4891 142.0765 99.7812 234 99.7812 96.7771 0 183.6861-42.4524 243.1562-109.7188-13.5922-.8096-26.6269-3.7297-38.7812-8.4062-58.3882 56.4046-137.8426 91.125-225.375 91.125-19.6841 0-38.9665-1.761-57.6875-5.125 8.7985.7207 17.7042 1.125 26.6875 1.125 138.7368 0 257.2139-87.2269 303.5938-209.78125-45.1415-18.82263-94.6572-29.21875-146.5938-29.21875-92.9344-.00001-178.141 33.2986-244.3438 88.5938 69.32-72.31244 166.7866-117.42918 274.75-117.5938 6.9117-13.3855 16.079-25.41476 27-35.59375-5.7681-.25939-11.5739-.40625-17.4062-.40625-108.5372-.00001-206.5167 45.40977-276 118.25 39.8979-53.90426 63.5-120.57962 63.5-192.75 0-58.02033-15.257-112.47987-41.9688-159.625-5.9036 19.67936-16.3599 37.39064-30.125 51.9375 19.931 42.06077 31.0938 89.0781 31.0938 138.6875 0 74.68567-25.2878 143.49173-67.75 198.3438 34.5761-51.58965 54.75-113.61797 54.75-180.3438 0-98.10231-43.6264-186.07486-112.5-245.59375zm0 541.31255c-58.257 55.62-137.1575 89.7812-224 89.7812h-252.53125c7.44465 10.9404 15.24579 21.616 23.40625 32h244.125c79.6028 0 152.5242-28.7197 209-76.3438 56.4758 47.6241 129.3973 76.3438 209 76.3438h244.125c8.1606-10.384 15.9616-21.0596 23.4062-32h-252.5312c-86.8424 0-165.7429-34.1612-224-89.7812zm-425.125 154.7812c4.9651 5.4271 10.0508 10.7637 15.2188 16h819.8124c5.1679-5.2363 10.2537-10.5729 15.2188-16zm50.5938 49c10.1323 8.6837 20.5576 17.0259 31.2812 25h343.25 343.25c10.7237-7.9741 21.1489-16.3163 31.2812-25h-374.5312zm67.75 50c18.576 11.72 37.8551 22.4252 57.7812 32h249 249c19.9262-9.5748 39.2052-20.28 57.7812-32h-306.7812zm94.3437 48c65.7472 26.1288 137.4178 40.5 212.4375 40.5s146.6902-14.3712 212.4375-40.5h-212.4375z" fill="#fff"/></g></svg>