<svg fill="none" height="51" viewBox="0 0 51 51" width="51" xmlns="http://www.w3.org/2000/svg"><g fill="#000"><path d="m30.5101 23.3808c1.1829 0 2.145-.9621 2.145-2.145v-1.8811-12.87852-1.33117c0-1.1829-.9621-2.14501-2.145-2.14501h-8.6249c-1.1829 0-2.145.96211-2.145 2.14501v1.33117 12.87862 1.8811c0 1.1829.9621 2.145 2.145 2.145zm-9.2849-18.23579c0-.36393.2961-.66016.6601-.66016h8.6249c.3639 0 .6602.29615.6602.66016v.58874h-9.9452zm0 2.07359h9.9451v11.3938h-9.9451zm0 14.0173v-1.1387h9.9451v1.1387c0 .3639-.2962.6601-.6602.6601h-8.6249c-.3639 0-.66-.2962-.66-.6601z"/><path d="m26.1983 21.5512c.3313 0 .5998-.2686.5998-.5999s-.2685-.5999-.5998-.5999-.5999.2686-.5999.5999.2686.5999.5999.5999z"/><path d="m47.9287 17.9478h-12.7922c-.41 0-.7425.3325-.7425.7424v8.8363c0 .41.3325.7424.7425.7424h5.6537v1.4392h-2.1301c-.41 0-.7424.3321-.7424.7424 0 .4104.3324.7425.7424.7425h5.7451c.41 0 .7424-.3321.7424-.7425 0-.4103-.3324-.7424-.7424-.7424h-2.1301v-1.4392h5.6537c.41 0 .7424-.3324.7424-.7424v-8.8363c0-.4099-.3324-.7424-.7425-.7424zm-.7424 8.8363h-11.3074v-7.3514h11.3075z"/><path d="m15.5344 18.1555h-12.79198c-.40996 0-.74242.3325-.74242.7425v8.8362c0 .41.33246.7425.74242.7425h5.65334v1.4388h-2.13001c-.40997 0-.74243.3321-.74243.7424s.33246.7424.74243.7424h5.74545c.41 0 .7424-.3321.7424-.7424s-.3324-.7424-.7424-.7424h-2.13044v-1.4388h5.65374c.4099 0 .7424-.3325.7424-.7425v-8.8362c-.0001-.41-.3325-.7425-.7425-.7425zm-.7424 8.8363h-11.30715v-7.3514h11.30715z"/><path d="m26.1721 47.4994c.4686 0 .8486-.3799.8486-.8486 0-.4686-.38-.8486-.8486-.8486-.4687 0-.8486.38-.8486.8486 0 .4687.3799.8486.8486.8486z"/><path d="m21.0023 40.923c.3027.2791.7718.2581 1.0491-.0428 2.2768-2.4745 5.9576-2.4783 8.2385 0 .2762.3008.7463.3224 1.0491.0443.3016-.2777.3212-.7475.0435-1.0492-2.866-3.1148-7.5539-3.1181-10.4236-.0014-.2778.3023-.2582.7714.0434 1.0491z"/><path d="m22.6556 41.7197c-.2777.3017-.2582.7715.0438 1.0492.3021.2776.7719.2574 1.0488-.0443 1.3435-1.4597 3.5003-1.4613 4.8453 0 .2763.3008.7463.3224 1.0492.0443.3016-.2777.3211-.7475.0435-1.0492-1.9324-2.1009-5.0974-2.1021-7.0306 0z"/><path d="m24.3515 43.5642c-.2773.3016-.2577.7715.0443 1.0491.3006.2769.7714.2582 1.0491-.0442.3945-.43 1.0564-.4285 1.4519 0 .2773.303.7471.3219 1.0487.0442.302-.2776.3216-.7475.0439-1.0491-.9639-1.0476-2.6732-1.0476-3.6379 0z"/></g><path d="m26.3169 24.9515v6.86" stroke="#000" stroke-linecap="round"/><path d="m39.5469 31.8115-4.9 4.9" stroke="#000" stroke-linecap="round"/><path d="m13.0869 31.8115 4.9 4.9" stroke="#000" stroke-linecap="round"/></svg>