<svg fill="none" height="51" viewBox="0 0 50 51" width="50" xmlns="http://www.w3.org/2000/svg"><path d="m25.909 6.45148c-7.3915 0-14.0974 4.24242-17.25197 10.85712h-2.7482c-.315 0-.60773.1624-.77319.4289-.16545.2669-.18045.5998-.04.8803l3.63639 7.2381c.15409.3067.46864.5003.81319.5003s.65908-.1936.81318-.4998l3.6364-7.2381c.1409-.2805.1254-.6135-.04-.8804-.1655-.2669-.4582-.4293-.7732-.4293h-2.4841c2.9941-5.538 8.8178-9.0476 15.2115-9.0476 9.5241 0 17.2728 7.7117 17.2728 17.1905 0 9.4787-7.7487 17.1905-17.2728 17.1905-7.0746 0-13.3615-4.2199-16.01514-10.7513-.18864-.4628-.71592-.6854-1.18365-.4995-.465.1878-.69046.7148-.50182 1.178 2.93321 7.2182 9.88141 11.8823 17.70061 11.8823 10.5269 0 19.091-8.5233 19.091-19s-8.5641-19.00002-19.091-19.00002zm-16.36378 16.97692-2.16547-4.3103h4.33045zm20.00018 3.8326c0 1.4969-1.2232 2.7143-2.7273 2.7143v1.3571c0 .4995-.4073.9048-.9091.9048-.5019 0-.9091-.4053-.9091-.9048v-1.3571h-1.3637c-.5018 0-.9091-.4053-.9091-.9048 0-.4994.4073-.9047.9091-.9047h3.1819c.5013 0 .9091-.4058.9091-.9048s-.4078-.9048-.9091-.9048h-1.8182c-1.5041 0-2.7273-1.2173-2.7273-2.7142 0-1.497 1.2232-2.7143 2.7273-2.7143v-1.3572c0-.4994.4072-.9047.9091-.9047.5018 0 .9091.4053.9091.9047v1.3572h1.3636c.5018 0 .9091.4053.9091.9047 0 .4995-.4073.9048-.9091.9048h-3.1818c-.5014 0-.9091.4058-.9091.9048 0 .4989.4077.9047.9091.9047h1.8182c1.5041 0 2.7273 1.2174 2.7273 2.7143zm-3.6364 8.5952c-5.7651 0-10.4547-4.6672-10.4547-10.4047 0-5.7376 4.6896-10.4048 10.4547-10.4048 5.765 0 10.4546 4.6672 10.4546 10.4048 0 5.7375-4.6896 10.4047-10.4546 10.4047zm0-19c-4.7623 0-8.6365 3.8557-8.6365 8.5953s3.8742 8.5952 8.6365 8.5952 8.6364-3.8556 8.6364-8.5952-3.8741-8.5953-8.6364-8.5953z" fill="#000"/></svg>