<svg fill="none" height="51" viewBox="0 0 51 51" width="51" xmlns="http://www.w3.org/2000/svg"><path d="m25.8 20c-.2167.0067-.425.0967-.5783.2533l-4.3967 4.3834-2.7083-2.7c-.7584-.79-1.9834.43-1.1917 1.1866l3.305 3.2967c.3283.3283.8617.3283 1.1917 0l4.9916-4.9783c.55-.5334.145-1.4417-.6116-1.4417zm-24.966667 6.6667h4.999997c.46167 0 .83334.3716.83334.8333s-.37167.8333-.83334.8333h-4.999997c-.461666 0-.833333-.3716-.833333-.8333s.371667-.8333.833333-.8333zm0-6.6667h4.999997c.46167 0 .83334.3717.83334.8333 0 .4617-.37167.8334-.83334.8334h-4.999997c-.461666 0-.833333-.3717-.833333-.8334 0-.4616.371667-.8333.833333-.8333zm0-6.6667h4.999997c.46167 0 .83334.3717.83334.8334 0 .4616-.37167.8333-.83334.8333h-4.999997c-.461666 0-.833333-.3717-.833333-.8333 0-.4617.371667-.8334.833333-.8334zm39.999967 18.3334c-2.2916 0-4.1666 1.875-4.1666 4.1666 0 2.2917 1.875 4.1667 4.1666 4.1667 2.2917 0 4.1667-1.875 4.1667-4.1667 0-2.2916-1.875-4.1666-4.1667-4.1666zm0 1.6666c1.39 0 2.5 1.11 2.5 2.5s-1.11 2.5-2.5 2.5-2.5-1.11-2.5-2.5 1.11-2.5 2.5-2.5zm-21.6666-1.6666c-2.2917 0-4.1667 1.875-4.1667 4.1666 0 2.2917 1.875 4.1667 4.1667 4.1667 2.2916 0 4.1666-1.875 4.1666-4.1667 0-2.2916-1.875-4.1666-4.1666-4.1666zm0 1.6666c1.39 0 2.5 1.11 2.5 2.5s-1.11 2.5-2.5 2.5-2.5-1.11-2.5-2.5 1.11-2.5 2.5-2.5zm-8.3334-23.3333c-1.36997 0-2.49997 1.13-2.49997 2.5v18.3333c0 1.37 1.13 2.5 2.49997 2.5h3.3334c1.1266.0167 1.1266-1.6833 0-1.6666h-3.3334c-.4766 0-.8333-.3567-.8333-.8334v-18.3333c0-.4767.3567-.8333.8333-.8333h21.6667c.4767 0 .8333.3566.8333.8333v19.1667h-9.1666c-1.1 0-1.08 1.6833 0 1.6666h11.6666c1.1 0 1.09-1.6666 0-1.6666h-.8333v-15h7.045l6.2883 9.8266v4.34c0 .4767-.3566.8334-.8333.8334h-1.6667c-1.09 0-1.09 1.6666 0 1.6666h1.6667c1.37 0 2.5-1.13 2.5-2.5v-4.5833c0-.1583-.045-.3167-.13-.45l-6.6667-10.4167c-.1533-.2383-.4166-.3833-.7033-.3833h-7.5v-2.5c0-1.37-1.13-2.5-2.5-2.5z" fill="#000"/></svg>