<svg fill="none" height="25" viewBox="0 0 24 25" width="24" xmlns="http://www.w3.org/2000/svg"><path clip-rule="evenodd" d="m12.7071 16.1585c-.1875.1875-.4418.2928-.707.2928s-.5195-.1053-.707-.2928l-5.657-5.657c-.09551-.0923-.17169-.2026-.2241-.3246s-.08-.25324-.08115-.38601c-.00116-.13278.02415-.26446.07443-.38736s.12453-.23455.21842-.32844c.0939-.09389.20555-.16815.32844-.21843.1229-.05028.25458-.07558.38736-.07443.13278.00116.264.02874.386.08115.12201.05241.23235.12859.3246.2241l4.95 4.95002 4.95-4.95002c.1886-.18215.4412-.28295.7034-.28067s.513.10745.6984.29286c.1854.1854.2906.43622.2929.69841.0023.26222-.0985.51482-.2807.70342z" fill="#000" fill-rule="evenodd"/></svg>